<svg xmlns="http://www.w3.org/2000/svg" xmlns:xlink="http://www.w3.org/1999/xlink" width="1024" zoomAndPan="magnify" viewBox="0 0 768 767.999994" height="1024" preserveAspectRatio="xMidYMid meet" version="1.0"><defs><g/><clipPath id="ecdae83126"><path d="M 0 494.683594 L 768 494.683594 L 768 725.082031 L 0 725.082031 Z M 0 494.683594 " clip-rule="nonzero"/></clipPath><clipPath id="9a199f244b"><path d="M 1280.753906 609.882812 L 1165.554688 494.683594 L 1165.554688 552.28125 L -97.128906 552.28125 L -97.128906 667.480469 L 1165.554688 667.480469 L 1165.554688 725.082031 Z M 1280.753906 609.882812 " clip-rule="nonzero"/></clipPath></defs><g fill="#2978ff" fill-opacity="1"><g transform="translate(-16.404353, 509.4009)"><g><path d="M 48.8125 0 L 48.8125 -255.015625 C 48.8125 -290.359375 57.085938 -322.195312 73.640625 -350.53125 C 90.191406 -378.863281 113.894531 -401.164062 144.75 -417.4375 C 175.613281 -433.71875 212.367188 -441.859375 255.015625 -441.859375 C 276.335938 -441.859375 295.972656 -439.472656 313.921875 -434.703125 C 331.878906 -429.929688 348.289062 -423.476562 363.15625 -415.34375 C 378.03125 -407.207031 390.796875 -397.53125 401.453125 -386.3125 L 403.140625 -386.3125 C 414.359375 -397.53125 427.398438 -407.207031 442.265625 -415.34375 C 457.140625 -423.476562 473.691406 -429.929688 491.921875 -434.703125 C 510.160156 -439.472656 529.941406 -441.859375 551.265625 -441.859375 C 593.910156 -441.859375 630.660156 -433.71875 661.515625 -417.4375 C 692.378906 -401.164062 716.222656 -378.863281 733.046875 -350.53125 C 749.878906 -322.195312 758.296875 -290.359375 758.296875 -255.015625 L 758.296875 0 L 627.015625 0 L 627.015625 -250.796875 C 627.015625 -264.828125 623.503906 -277.59375 616.484375 -289.09375 C 609.472656 -300.59375 600.078125 -309.988281 588.296875 -317.28125 C 576.515625 -324.582031 563.046875 -328.234375 547.890625 -328.234375 C 532.742188 -328.234375 519.140625 -324.582031 507.078125 -317.28125 C 495.015625 -309.988281 485.613281 -300.59375 478.875 -289.09375 C 472.144531 -277.59375 468.78125 -264.828125 468.78125 -250.796875 L 468.78125 0 L 338.328125 0 L 338.328125 -250.796875 C 338.328125 -264.828125 334.820312 -277.59375 327.8125 -289.09375 C 320.800781 -300.59375 311.265625 -309.988281 299.203125 -317.28125 C 287.140625 -324.582031 273.53125 -328.234375 258.375 -328.234375 C 243.226562 -328.234375 229.625 -324.582031 217.5625 -317.28125 C 205.5 -309.988281 196.097656 -300.59375 189.359375 -289.09375 C 182.628906 -277.59375 179.265625 -264.828125 179.265625 -250.796875 L 179.265625 0 Z M 48.8125 0 "/></g></g></g><g clip-path="url(#ecdae83126)"><g clip-path="url(#9a199f244b)"><path fill="#2978ff" d="M -97.128906 494.683594 L 1280.769531 494.683594 L 1280.769531 725.082031 L -97.128906 725.082031 Z M -97.128906 494.683594 " fill-opacity="1" fill-rule="nonzero"/></g></g></svg>